#!OML:ASF F:\VICON\USERDATA\INSTALL\rory3\rory3.ASF
:FULLY-SPECIFIED
:DEGREES
103
root -1.74444 18.038 -35.1043 1.92968 -2.36732 -6.41269
lowerback 6.17182 2.02411 2.23611
upperback 1.17073 2.96089 4.6227
thorax -2.38466 1.47414 3.27881
lowerneck -14.2027 -6.04178 -15.5055
upperneck 25.1284 -7.03864 9.09294
head 11.4253 -3.62245 4.96294
rclavicle 5.86415e-015 -7.15625e-015
rhumerus -32.3157 -11.4762 -76.7327
rradius 24.3144
rwrist -8.31403
rhand -10.3349 23.8984
rfingers 7.12502
rthumb 15.6611 -5.48775
lclavicle 5.86415e-015 -7.15625e-015
lhumerus -35.9122 13.1637 81.9222
lradius 29.7445
lwrist -7.73938
lhand 0.0117944 32.4983
lfingers 7.12502
lthumb 25.6017 60.7974
rfemur -2.85711 0.678678 30.5673
rtibia 26.4463
rfoot -22.726 -4.67836
rtoes 29.9693
lfemur -33.4173 1.17962 -9.79725
ltibia 57.9586
lfoot -13.5297 -1.48508
ltoes -8.19112
104
root -1.75369 18.0152 -35.042 1.84842 -1.13456 -6.60733
lowerback 6.05593 1.59373 2.48604
upperback 1.12968 2.40225 4.70772
thorax -2.33191 1.19426 3.27601
lowerneck -14.3014 -6.00366 -15.5143
upperneck 25.3618 -6.95123 8.99788
head 11.5187 -3.59671 4.94726
rclavicle -2.17669e-014 -7.95139e-015
rhumerus -32.4737 -11.6888 -76.5811
rradius 24.2149
rwrist -7.82621
rhand -10.2991 23.512
rfingers 7.12502
rthumb 15.6956 -5.87144
lclavicle -2.17669e-014 -7.95139e-015
lhumerus -36.2921 13.2986 81.7065
lradius 29.4592
lwrist -7.75738
lhand -0.0983465 32.7043
lfingers 7.12502
lthumb 25.4962 61.0185
rfemur -2.40177 0.345504 31.045
rtibia 26.1324
rfoot -22.6069 -5.88367
rtoes 26.6494
lfemur -33.8728 0.16817 -9.50607
ltibia 56.8931
lfoot -13.7499 -1.4358
ltoes -5.60142
105
root -1.75355 18.0252 -34.9879 1.92453 -0.960549 -6.65613
lowerback 6.22504 1.54146 2.61664
upperback 0.844391 2.36604 4.67476
thorax -2.71351 1.174 3.16357
lowerneck -14.0671 -5.89616 -15.3967
upperneck 25.6557 -6.83787 8.84067
head 11.5565 -3.56372 4.8969
rclavicle 1.65985e-014 4.77083e-015
rhumerus -33.0143 -11.9589 -76.3463
rradius 24.0176
rwrist -7.44741
rhand -10.1049 23.4448
rfingers 7.12502
rthumb 15.8826 -5.92385
lclavicle 1.65985e-014 4.77083e-015
lhumerus -37.0289 13.3188 81.3496
lradius 29.1422
lwrist -7.92316
lhand -0.204973 32.6951
lfingers 7.12502
lthumb 25.394 61.0239
rfemur -2.07715 0.359976 31.1354
rtibia 25.7544
rfoot -23.3458 -5.64298
rtoes 31.2151
lfemur -34.2107 -0.0452847 -9.44766
ltibia 55.6995
lfoot -14.0079 -1.17346
ltoes -3.10909
106
root -1.7461 18.0383 -34.9363 2.16479 -1.70043 -6.57585
lowerback 6.32708 1.81426 2.64379
upperback 0.670898 2.74213 4.52906
thorax -2.95568 1.35911 2.95851
lowerneck -14.1302 -5.87133 -15.0779
upperneck 25.7901 -6.81454 8.59831
head 11.5941 -3.55113 4.75631
rclavicle 2.52953e-014 3.49861e-014
rhumerus -33.3948 -12.3304 -76.2042
rradius 23.9008
rwrist -7.2384
rhand -9.90605 23.562
rfingers 7.12502
rthumb 16.0741 -5.79131
lclavicle 2.52953e-014 3.49861e-014
lhumerus -37.2925 13.525 80.8729
lradius 28.3577
lwrist -8.35838
lhand -0.300374 32.1492
lfingers 7.12502
lthumb 25.3026 60.491
rfemur -1.88309 0.733619 30.9124
rtibia 25.2872
rfoot -22.4295 -5.72154
rtoes 26.4237
lfemur -34.4531 0.404351 -9.58459
ltibia 54.4238
lfoot -14.4532 -0.577381
ltoes -3.77476
107
root -1.74465 18.0434 -34.8849 2.30505 -1.79916 -6.68103
lowerback 6.23106 1.87949 2.84213
upperback 0.871023 2.82355 4.47747
thorax -2.68516 1.39817 2.79252
lowerneck -15.0485 -6.03955 -14.8307
upperneck 25.9641 -6.94116 8.44099
head 11.8479 -3.58376 4.62528
rclavicle 5.97348e-014 3.18055e-014
rhumerus -33.0531 -13.0327 -76.0692
rradius 23.7678
rwrist -7.25707
rhand -9.33773 23.888
rfingers 7.12502
rthumb 16.6213 -5.42032
lclavicle 5.97348e-014 3.18055e-014
lhumerus -36.9689 13.8194 80.6336
lradius 27.8522
lwrist -8.71998
lhand -0.191997 32.0281
lfingers 7.12502
lthumb 25.4065 60.3551
rfemur -1.60732 0.839582 31.0246
rtibia 24.7366
rfoot -22.6743 -5.46397
rtoes 29.7475
lfemur -34.727 0.383754 -9.471
ltibia 53.0287
lfoot -14.8745 -0.308289
ltoes -4.97571
108
root -1.74653 18.0479 -34.8276 2.42534 -1.51313 -6.78664
lowerback 5.99913 1.77867 2.94435
upperback 0.751332 2.69125 4.53649
thorax -2.67349 1.3318 2.81325
lowerneck -14.7192 -5.99192 -15.0932
upperneck 26.086 -6.90168 8.58803
head 11.841 -3.58483 4.74146
rclavicle -3.598e-014 -4.77083e-015
rhumerus -33.4661 -13.4413 -75.6421
rradius 23.7526
rwrist -7.58512
rhand -8.75223 22.851
rfingers 7.12502
rthumb 17.1849 -6.40905
lclavicle -3.598e-014 -4.77083e-015
lhumerus -37.4391 14.1454 80.3374
lradius 27.444
lwrist -9.13515
lhand -0.0754553 32.0734
lfingers 7.12502
lthumb 25.5181 60.3845
rfemur -1.31769 0.779055 31.2101
rtibia 24.2282
rfoot -22.1346 -6.06023
rtoes 25.9527
lfemur -35.0061 0.114049 -9.33345
ltibia 51.5787
lfoot -15.2333 -0.402437
ltoes -5.7323
109
root -1.74068 18.0546 -34.7744 2.48534 -1.66195 -6.78923
lowerback 6.23646 1.83356 2.97104
upperback 0.488268 2.79644 4.55244
thorax -3.08167 1.38131 2.7949
lowerneck -14.3829 -5.90617 -15.311
upperneck 26.2845 -6.79038 8.61169
head 11.8456 -3.5656 4.81607
rclavicle 6.09275e-014 4.21423e-014
rhumerus -34.1397 -13.852 -75.116
rradius 23.7042
rwrist -7.73548
rhand -9.43909 18.4671
rfingers 7.12502
rthumb 16.5237 -10.8493
lclavicle 6.09275e-014 4.21423e-014
lhumerus -38.0909 14.3101 80.0389
lradius 26.9861
lwrist -9.55238
lhand 0.0829485 31.9696
lfingers 7.12502
lthumb 25.6698 60.2589
rfemur -0.944397 0.860075 31.1729
rtibia 23.7261
rfoot -22.7606 -5.59234
rtoes 31.0426
lfemur -35.0903 0.0482346 -9.32953
ltibia 50.085
lfoot -15.4738 -0.202538
ltoes -7.02297
110
root -1.73865 18.0511 -34.7212 2.56798 -1.36803 -6.76226
lowerback 6.52274 1.77977 2.97162
upperback -0.0711607 2.77473 4.52426
thorax -3.8215 1.36547 2.75177
lowerneck -12.8792 -5.70289 -15.3565
upperneck 26.0448 -6.70969 8.57952
head 11.438 -3.56739 4.83768
rclavicle -5.69021e-014 -3.49861e-014
rhumerus -35.3583 -14.3038 -74.5122
rradius 23.6611
rwrist -7.67977
rhand -8.86589 21.9116
rfingers 7.12502
rthumb 17.0755 -7.35801
lclavicle -5.69021e-014 -3.49861e-014
lhumerus -39.3839 14.0071 79.6075
lradius 26.673
lwrist -9.8804
lhand 0.262008 31.9177
lfingers 7.12502
lthumb 25.8413 60.1822
rfemur -0.584091 0.768899 31.1836
rtibia 23.1861
rfoot -21.9208 -6.18376
rtoes 26.496
lfemur -35.3353 -0.356738 -9.32142
ltibia 48.5403
lfoot -15.6112 -0.0738306
ltoes -8.38814
111
root -1.74126 18.0486 -34.6693 2.893 -1.36836 -6.91547
lowerback 6.3691 1.83265 3.12598
upperback 0.0214499 2.84263 4.54929
thorax -3.63459 1.3979 2.69055
lowerneck -13.6204 -5.85294 -15.271
upperneck 26.0199 -6.801 8.49656
head 11.5847 -3.59165 4.76558
rclavicle 2.33572e-015 -2.14687e-014
rhumerus -35.0311 -14.8585 -74.3695
rradius 23.543
rwrist -7.63817
rhand -9.15431 21.5193
rfingers 7.12502
rthumb 16.7979 -7.7741
lclavicle 2.33572e-015 -2.14687e-014
lhumerus -39.0989 14.2961 79.4095
lradius 25.9856
lwrist -10.4566
lhand 0.206323 31.8905
lfingers 7.12502
lthumb 25.788 60.1627
rfemur -0.45572 0.923195 31.3816
rtibia 22.6016
rfoot -22.2582 -6.00921
rtoes 29.8229
lfemur -35.7433 -0.387494 -9.08824
ltibia 46.9491
lfoot -15.8151 -0.211614
ltoes -8.6407
112
root -1.75028 18.0533 -34.6132 2.82041 -1.05474 -6.97771
lowerback 6.48589 1.72445 3.1174
upperback 0.102836 2.70243 4.60666
thorax -3.61533 1.32907 2.76605
lowerneck -13.7402 -5.86315 -15.0754
upperneck 25.7548 -6.77942 8.30739
head 11.4884 -3.57615 4.65362
rclavicle -2.48481e-016 -3.89618e-014
rhumerus -34.9943 -15.0666 -74.2513
rradius 23.5191
rwrist -7.72672
rhand -9.61751 19.3588
rfingers 7.12502
rthumb 16.352 -9.97182
lclavicle -2.48481e-016 -3.89618e-014
lhumerus -39.0413 14.9148 79.0193
lradius 25.3042
lwrist -11.1069
lhand 0.151818 31.8612
lfingers 7.12502
lthumb 25.7358 60.141
rfemur 0.114225 1.14036 31.6366
rtibia 21.9551
rfoot -21.7963 -6.85657
rtoes 26.8383
lfemur -35.7105 -0.675601 -8.94558
ltibia 45.2334
lfoot -15.9748 -0.38312
ltoes -8.31098
113
root -1.74663 18.0777 -34.5538 3.09703 -1.35105 -6.75491
lowerback 6.29017 1.81763 2.91542
upperback 0.00866655 2.80199 4.51342
thorax -3.61044 1.38152 2.77709
lowerneck -13.5421 -5.78961 -14.8758
upperneck 25.5424 -6.68853 8.10302
head 11.3388 -3.5392 4.55301
rclavicle -2.78299e-015 -5.88403e-014
rhumerus -35.2115 -15.5571 -73.9704
rradius 23.4054
rwrist -7.61485
rhand -9.75049 18.4181
rfingers 7.12502
rthumb 16.2239 -10.923
lclavicle -2.78299e-015 -5.88403e-014
lhumerus -39.5675 15.1805 78.664
lradius 25.3732
lwrist -11.4025
lhand 0.326901 31.8581
lfingers 7.12502
lthumb 25.9035 60.1135
rfemur 0.27497 1.14668 31.2956
rtibia 21.4542
rfoot -21.4959 -6.69641
rtoes 25.9557
lfemur -36.0785 -0.600755 -9.18393
ltibia 43.5428
lfoot -15.9517 -0.188895
ltoes -8.00514
